<?xml version="1.0" encoding="UTF-8"?>
<!DOCTYPE svg PUBLIC "-//W3C//DTD SVG 1.1//EN" "http://www.w3.org/Graphics/SVG/1.1/DTD/svg11.dtd">
<svg xmlns="http://www.w3.org/2000/svg" version="1.1" width="1024px" height="1024px" style="shape-rendering:geometricPrecision; text-rendering:geometricPrecision; image-rendering:optimizeQuality; fill-rule:evenodd; clip-rule:evenodd" xmlns:xlink="http://www.w3.org/1999/xlink">
<g><path style="opacity:1" fill="#fefefe" d="M -0.5,-0.5 C 340.833,-0.5 682.167,-0.5 1023.5,-0.5C 1023.5,340.833 1023.5,682.167 1023.5,1023.5C 682.167,1023.5 340.833,1023.5 -0.5,1023.5C -0.5,682.167 -0.5,340.833 -0.5,-0.5 Z"/></g>
<g><path style="opacity:1" fill="#384a52" d="M 596.5,578.5 C 597.665,533.335 597.831,488.002 597,442.5C 596.802,440.618 596.302,438.952 595.5,437.5C 600.434,426.597 607.934,424.597 618,431.5C 619,433.167 620,434.833 621,436.5C 621.167,464.506 621.667,492.506 622.5,520.5C 636.984,507.183 651.318,493.683 665.5,480C 672.726,478.406 680.06,478.072 687.5,479C 692.54,481.196 693.707,484.696 691,489.5C 678.638,502.196 665.971,514.53 653,526.5C 651,529.167 651,531.833 653,534.5C 665.638,546.137 677.971,558.137 690,570.5C 693.376,574.931 693.21,579.264 689.5,583.5C 685.691,585.05 681.691,585.716 677.5,585.5C 673.715,585.589 670.048,585.089 666.5,584C 654.348,572.682 642.348,561.182 630.5,549.5C 626.859,551.307 624.026,553.974 622,557.5C 621.667,563.833 621.333,570.167 621,576.5C 616.658,585.726 609.825,588.226 600.5,584C 598.536,582.549 597.203,580.716 596.5,578.5 Z"/></g>
<g><path style="opacity:1" fill="#37484e" d="M 656.5,429.5 C 686.502,429.333 716.502,429.5 746.5,430C 750.5,433.667 750.5,437.333 746.5,441C 716.5,441.667 686.5,441.667 656.5,441C 652.555,437.169 652.555,433.336 656.5,429.5 Z"/></g>
<g><path style="opacity:1" fill="#479787" d="M 278.5,454.5 C 274.154,454.334 269.821,454.501 265.5,455C 264.263,455.232 263.263,455.732 262.5,456.5C 253.3,460.891 248.633,468.224 248.5,478.5C 259.172,478.333 269.839,478.5 280.5,479C 288.538,482.243 291.371,488.077 289,496.5C 287.505,501.162 284.339,503.828 279.5,504.5C 268.833,504.5 258.167,504.5 247.5,504.5C 247.5,528.5 247.5,552.5 247.5,576.5C 245.46,583.028 240.96,586.361 234,586.5C 227.595,586.098 223.595,582.765 222,576.5C 221.333,541.5 221.333,506.5 222,471.5C 226.752,448.416 240.585,434.249 263.5,429C 270.715,427.887 277.715,428.554 284.5,431C 289.72,435.916 290.887,441.75 288,448.5C 285.71,451.969 282.544,453.969 278.5,454.5 Z"/></g>
<g><path style="opacity:1" fill="#3f5057" d="M 311.5,428.5 C 325.152,427.044 331.319,433.044 330,446.5C 328.427,451.071 325.26,453.904 320.5,455C 308.226,456.393 302.392,450.893 303,438.5C 304.978,434.362 307.811,431.029 311.5,428.5 Z"/></g>
<g><path style="opacity:1" fill="#3b4c51" d="M 763.5,428.5 C 770.88,428.043 773.713,431.376 772,438.5C 768.049,443.818 764.049,443.818 760,438.5C 759.333,436.5 759.333,434.5 760,432.5C 761.376,431.295 762.542,429.962 763.5,428.5 Z"/></g>
<g><path style="opacity:1" fill="#b5d4cc" d="M 278.5,454.5 C 273.331,455.381 267.998,456.048 262.5,456.5C 263.263,455.732 264.263,455.232 265.5,455C 269.821,454.501 274.154,454.334 278.5,454.5 Z"/></g>
<g><path style="opacity:1" fill="#384a52" d="M 636.5,454.5 C 660.169,454.333 683.836,454.5 707.5,455C 711.654,459.399 711.321,463.399 706.5,467C 683.5,467.667 660.5,467.667 637.5,467C 632.511,463.219 632.178,459.052 636.5,454.5 Z"/></g>
<g><path style="opacity:1" fill="#469687" d="M 351.5,477.5 C 359.597,475.887 366.263,478.221 371.5,484.5C 376.369,481.264 381.703,479.097 387.5,478C 423.369,474.335 445.869,489.835 455,524.5C 455.667,541.833 455.667,559.167 455,576.5C 452.053,584.721 446.22,587.888 437.5,586C 432.664,584.181 429.831,580.681 429,575.5C 428.667,558.833 428.333,542.167 428,525.5C 420.861,508.013 408.027,501.18 389.5,505C 381.667,508.833 375.833,514.667 372,522.5C 371,541.5 370,560.5 369,579.5C 365.032,585.451 359.532,587.618 352.5,586C 348.942,584.108 346.442,581.275 345,577.5C 344.333,546.5 344.333,515.5 345,484.5C 346.694,481.642 348.861,479.309 351.5,477.5 Z"/></g>
<g><path style="opacity:1" fill="#469787" d="M 513.5,477.5 C 546.924,475.116 568.757,489.783 579,521.5C 579.667,540.167 579.667,558.833 579,577.5C 574.916,585.125 568.749,587.625 560.5,585C 557.989,583.152 555.489,581.319 553,579.5C 522.19,594.879 496.523,588.879 476,561.5C 461.655,533.406 466.155,508.906 489.5,488C 497.009,483.072 505.009,479.572 513.5,477.5 Z"/></g>
<g><path style="opacity:1" fill="#469687" d="M 313.5,477.5 C 320.789,476.644 326.289,479.31 330,485.5C 330.667,515.833 330.667,546.167 330,576.5C 326.068,585.467 319.568,588.3 310.5,585C 307.813,583.125 305.979,580.625 305,577.5C 304.333,546.833 304.333,516.167 305,485.5C 307.074,481.923 309.907,479.256 313.5,477.5 Z"/></g>
<g><path style="opacity:1" fill="#fcfdfd" d="M 516.5,503.5 C 542.228,502.725 554.061,515.058 552,540.5C 545.842,556.167 534.342,563.001 517.5,561C 500.509,555.185 493.009,543.352 495,525.5C 498.35,514.318 505.517,506.984 516.5,503.5 Z"/></g>
<g><path style="opacity:1" fill="#384a52" d="M 739.5,476.5 C 769.509,475.904 789.676,489.571 800,517.5C 805.773,551.007 792.94,573.84 761.5,586C 726.164,592.927 702.997,579.427 692,545.5C 687.529,508.423 703.363,485.423 739.5,476.5 Z"/></g>
<g><path style="opacity:1" fill="#fcfcfb" d="M 737.5,503.5 C 762.625,501.131 775.125,512.464 775,537.5C 769.58,556.307 757.08,564.14 737.5,561C 718.587,551.595 713.087,537.095 721,517.5C 725.174,511.15 730.674,506.484 737.5,503.5 Z"/></g>
<g><path style="opacity:1" fill="#2d4245" d="M 595.5,437.5 C 596.302,438.952 596.802,440.618 597,442.5C 597.831,488.002 597.665,533.335 596.5,578.5C 595.505,531.572 595.172,484.572 595.5,437.5 Z"/></g>
<g><path style="opacity:1" fill="#a4ccc2" d="M 279.5,504.5 C 269.347,505.494 259.014,505.828 248.5,505.5C 248.831,529.339 248.498,553.006 247.5,576.5C 247.5,552.5 247.5,528.5 247.5,504.5C 258.167,504.5 268.833,504.5 279.5,504.5 Z"/></g>
</svg>
